{
    "accessors": [
        {
            "bufferView": 2,
            "byteOffset": 0,
            "componentType": 5126,
            "count": 19416,
            "max": [
                1.0,
                1.0
            ],
            "min": [
                0.0,
                0.0
            ],
            "name": "accessor_buffer_Untitled_TEXCOORD_0_0",
            "type": "VEC2"
        },
        {
            "bufferView": 3,
            "byteOffset": 0,
            "componentType": 5123,
            "count": 57618,
            "max": [
                19415
            ],
            "min": [
                0
            ],
            "name": "accessor_buffer_Untitled_0",
            "type": "SCALAR"
        },
        {
            "bufferView": 0,
            "byteOffset": 0,
            "componentType": 5126,
            "count": 19416,
            "max": [
                1.0728283834763631e-14,
                62.45931625366211,
                7.470099925994873
            ],
            "min": [
                -2.0,
                -62.45931625366211,
                -7.470099925994873
            ],
            "name": "accessor_buffer_Untitled_POSITION_0",
            "type": "VEC3"
        },
        {
            "bufferView": 1,
            "byteOffset": 0,
            "componentType": 5126,
            "count": 19416,
            "max": [
                1.0,
                1.0,
                1.0
            ],
            "min": [
                -1.0,
                -1.0,
                -1.0
            ],
            "name": "accessor_buffer_Untitled_NORMAL_0",
            "type": "VEC3"
        }
    ],
    "asset": {
        "copyright": "",
        "generator": "blendergltf v1.2.0",
        "version": "2.0"
    },
    "bufferViews": [
        {
            "buffer": 0,
            "byteLength": 232992,
            "byteOffset": 0,
            "byteStride": 12,
            "name": "bufferView_buffer_Untitled_POSITION_0",
            "target": 34962
        },
        {
            "buffer": 0,
            "byteLength": 232992,
            "byteOffset": 232992,
            "byteStride": 12,
            "name": "bufferView_buffer_Untitled_NORMAL_0",
            "target": 34962
        },
        {
            "buffer": 0,
            "byteLength": 155328,
            "byteOffset": 465984,
            "byteStride": 8,
            "name": "bufferView_buffer_Untitled_TEXCOORD_0_0",
            "target": 34962
        },
        {
            "buffer": 0,
            "byteLength": 115240,
            "byteOffset": 621312,
            "name": "bufferView_buffer_Untitled_0",
            "target": 34963
        }
    ],
    "buffers": [
        {
            "byteLength": 736552,
            "name": "buffer_protocolo-leters",
            "uri": "data:application/octet-stream;base64,"
        }
    ],
    "cameras": [
        {
            "name": "Camera",
            "perspective": {
                "aspectRatio": 1.703595982340029,
                "yfov": 0.5033799409866333,
                "zfar": 100.0,
                "znear": 0.10000000149011612
            },
            "type": "perspective"
        }
    ],
    "materials": [
        {
            "alphaMode": "OPAQUE",
            "doubleSided": false,
            "emissiveFactor": [
                0.0,
                0.0,
                0.0
            ],
            "name": "White_Material",
            "pbrMetallicRoughness": {
                "baseColorFactor": [
                    0.800000011920929,
                    0.800000011920929,
                    0.800000011920929,
                    1.0
                ],
                "metallicFactor": 0.0,
                "roughnessFactor": 1.0
            }
        }
    ],
    "meshes": [
        {
            "name": "Untitled",
            "primitives": [
                {
                    "attributes": {
                        "NORMAL": 3,
                        "POSITION": 2,
                        "TEXCOORD_0": 0
                    },
                    "indices": 1,
                    "material": 0,
                    "mode": 4
                }
            ]
        }
    ],
    "nodes": [
        {
            "camera": 0,
            "name": "Camera",
            "rotation": [
                -0.09062843769788742,
                -0.8937962651252747,
                -0.2099730223417282,
                0.38578000664711
            ],
            "scale": [
                1.0,
                1.0,
                1.0
            ],
            "translation": [
                -7.481131553649902,
                5.34366512298584,
                -6.5076398849487305
            ]
        },
        {
            "name": "Lamp",
            "rotation": [
                -0.34203386306762695,
                -0.5232755541801453,
                -0.2841663062572479,
                0.7269423007965088
            ],
            "scale": [
                1.0,
                1.0,
                0.9999999403953552
            ],
            "translation": [
                -4.076245307922363,
                5.903861999511719,
                1.0054539442062378
            ]
        },
        {
            "mesh": 0,
            "name": "PROTOCOLO_LETTERING",
            "rotation": [
                -0.7071068286895752,
                0.0,
                0.0,
                0.7071067094802856
            ],
            "scale": [
                0.009999999776482582,
                0.009999999776482582,
                0.009999999776482582
            ],
            "translation": [
                -1.11506903742838e-18,
                0.00013375251728575677,
                -3.663264214992523e-05
            ]
        }
    ],
    "scene": 0,
    "scenes": [
        {
            "extras": {
                "active_camera": 0,
                "background_color": [
                    0.05087608844041824,
                    0.05087608844041824,
                    0.05087608844041824
                ],
                "frames_per_second": 30
            },
            "name": "Scene",
            "nodes": [
                2,
                1,
                0
            ]
        }
    ]
}
